<?xml version="1.0" encoding="UTF-8"?>
<svg id="Layer_2" data-name="Layer 2" xmlns="http://www.w3.org/2000/svg" viewBox="0 0 22.76 17.75">
  <defs>
    <style>
      .cls-1 {
        stroke-width: 0px;
      }
    </style>
  </defs>
  <g id="Layer_1-2" data-name="Layer 1">
    <g>
      <path fill="currentColor" class="cls-1" d="M12.63,8.88c0,2.67,0,5.33,0,8,0,.46-.27.79-.71.86-.26.04-.49-.05-.69-.22-.6-.52-1.2-1.04-1.8-1.56-1.19-1.03-2.39-2.07-3.58-3.09-.05-.04-.13-.06-.19-.07-1.58,0-3.16,0-4.75,0-.13,0-.28-.01-.4-.06C.18,12.6,0,12.35,0,12c0-2.1,0-4.21,0-6.31,0-.46.36-.8.83-.8.39,0,.79,0,1.18,0,1.24,0,2.48,0,3.72,0,.07,0,.15-.03.2-.07,1.77-1.52,3.53-3.05,5.3-4.58.48-.42,1.19-.23,1.36.36.03.1.04.21.04.31,0,2.66,0,5.32,0,7.99Z"/>
      <path fill="currentColor" class="cls-1" d="M22.76,8.8c-.04,3.25-1.02,6.08-2.98,8.56-.24.31-.61.42-.96.29-.34-.13-.55-.45-.53-.82.01-.19.09-.35.21-.5.73-.92,1.31-1.92,1.75-3.01.45-1.13.73-2.31.82-3.53.21-3.11-.65-5.9-2.57-8.36-.22-.28-.28-.59-.11-.91.15-.31.42-.46.76-.45.27,0,.48.14.64.35.75.94,1.36,1.96,1.84,3.07.6,1.4.97,2.85,1.08,4.37.02.34.04.69.05.94Z"/>
      <path fill="currentColor" class="cls-1" d="M19.72,8.89c-.02,2.33-.7,4.43-2.07,6.32-.19.27-.46.39-.78.35-.31-.04-.54-.22-.66-.52-.11-.29-.06-.56.12-.81.5-.69.92-1.43,1.2-2.24,1.02-2.99.64-5.79-1.16-8.39-.18-.27-.28-.53-.16-.85.11-.3.33-.48.65-.53.32-.05.59.06.79.33.76,1.03,1.31,2.15,1.66,3.38.28.97.42,1.95.42,2.96Z"/>
      <path fill="currentColor" class="cls-1" d="M16.51,8.89c0,1.43-.4,2.75-1.17,3.95-.26.4-.75.51-1.14.27-.39-.24-.5-.74-.25-1.14.44-.69.73-1.42.85-2.23.2-1.37-.07-2.64-.79-3.82-.13-.21-.23-.42-.18-.68.06-.34.3-.6.64-.67.32-.07.66.06.85.35.51.77.86,1.61,1.04,2.52.1.48.15.97.15,1.46Z"/>
    </g>
  </g>
</svg>