<?xml version="1.0" encoding="UTF-8"?>
<svg id="Layer_2" data-name="Layer 2" xmlns="http://www.w3.org/2000/svg" viewBox="0 0 47.53 47.53">
  <defs>
    <style>
      .cls-1 {
        fill: #587dbe;
        stroke-width: 0px;
      }
    </style>
  </defs>
  <g id="Layer_1-2" data-name="Layer 1">
    <path class="cls-1" d="M23.68,47.52c-5.94,0-11.87.01-17.81,0-3.69-.01-5.86-2.18-5.86-5.88C0,29.76,0,17.89,0,6.02.01,2.2,2.17.02,5.96.01c11.87-.02,23.74-.02,35.61,0,3.83,0,5.94,2.12,5.94,5.98.02,11.87.02,23.74.01,35.61,0,3.72-2.15,5.89-5.85,5.9-6,.02-12,0-17.99,0ZM37.06,10.69c-.9-.05-1.62-.14-2.34-.14-7.09,0-14.19,0-21.28,0q-2.89,0-2.89,2.87,0,2.46,2.54,2.47c.68,0,1.36,0,2.04,0,6.72,0,13.45-.03,20.17.02,1.35.01,1.92-.38,1.78-1.79-.11-1.09-.02-2.19-.02-3.44ZM10.66,26.27h26.24v-4.98H10.66v4.98ZM29.04,31.65c-.89,0-1.55,0-2.22,0-4.19,0-8.38-.06-12.57.01-4.38.08-3.59-.84-3.74,3.86-.04,1.17.49,1.49,1.55,1.48,5.24-.02,10.48,0,15.72-.05.43,0,1.17-.55,1.21-.9.14-1.39.06-2.8.06-4.4Z"/>
  </g>
</svg>